<svg id="visual" viewBox="0 0 1920 1080" width="1920" height="1080" xmlns="http://www.w3.org/2000/svg" xmlns:xlink="http://www.w3.org/1999/xlink" version="1.1"><rect x="0" y="0" width="1920" height="1080" fill="#fcf5e5"></rect><defs><linearGradient id="grad1_0" x1="43.8%" y1="100%" x2="100%" y2="0%"><stop offset="14.444444444444446%" stop-color="#fcf5e5" stop-opacity="1"></stop><stop offset="85.55555555555554%" stop-color="#fcf5e5" stop-opacity="1"></stop></linearGradient></defs><defs><linearGradient id="grad2_0" x1="0%" y1="100%" x2="56.3%" y2="0%"><stop offset="14.444444444444446%" stop-color="#fcf5e5" stop-opacity="1"></stop><stop offset="85.55555555555554%" stop-color="#fcf5e5" stop-opacity="1"></stop></linearGradient></defs><g transform="translate(1920, 1080)"><path d="M-972 0C-890.8 -136.8 -809.6 -273.7 -738.7 -426.5C-667.9 -579.3 -607.4 -748.2 -486 -841.8C-364.6 -935.4 -182.3 -953.7 0 -972L0 0Z" fill="#ebf4e1"></path></g><g transform="translate(0, 0)"><path d="M972 0C958.7 191 945.4 381.9 841.8 486C738.2 590.1 544.3 607.2 389 673.8C233.7 740.3 116.8 856.1 0 972L0 0Z" fill="#ebf4e1"></path></g></svg>